<?xml version="1.0" standalone="yes"?>

<svg version="1.1" viewBox="0.0 0.0 153.0 141.0" fill="none" stroke="none" stroke-linecap="square" stroke-miterlimit="10" xmlns="http://www.w3.org/2000/svg" xmlns:xlink="http://www.w3.org/1999/xlink"><clipPath id="p.0"><path d="m0 0l153.0 0l0 141.0l-153.0 0l0 -141.0z" clip-rule="nonzero"></path></clipPath><g clip-path="url(#p.0)"><path fill="#000000" fill-opacity="0.0" d="m0 0l153.1916 0l0 141.60104l-153.1916 0z" fill-rule="nonzero"></path><path fill="#000000" fill-opacity="0.0" d="m4.5669293 -14.511811l153.22835 0l0 141.60631l-153.22835 0z" fill-rule="nonzero"></path><path fill="#0000ff" d="m13.379429 117.368195l35.1875 -91.625l13.0625 0l37.500004 91.625l-13.8125 0l-10.6875 -27.75l-38.312504 0l-10.0625 27.75l-12.875 0zm26.4375 -37.625l31.062504 0l-9.562504 -25.375q-4.375 -11.5625 -6.5 -19.0q-1.75 8.8125 -4.9375 17.5l-10.0625 26.875z" fill-rule="nonzero"></path><path fill="#000000" d="m110.87943 117.368195l0 -91.625l12.125 0l0 91.625l-12.125 0z" fill-rule="nonzero"></path></g></svg>

